# xmcd CD database file
#
# Track frame offsets:
#	150
#	24145
#	47858
#
# Disc length: 1188 seconds
#
# Revision: 1
# Processed by: cddbd v1.5.2PL0 Copyright (c) Steve Scherf et al.
# Submitted via: CDex 1.70beta2
#
DISCID=1904a203
DTITLE=Love Tambourines - Call Me Call Me
DYEAR=1994
DGENRE=J-Pop
TTITLE0=Call Me Call Me
TTITLE1=Call Me Call Me (Version)
TTITLE2=Marry Me Baby ～ Amazing Grace
EXTD=YEAR: 1994
EXTT0=
EXTT1=
EXTT2=
PLAYORDER=
